<?xml version="1.0" encoding="UTF-8"?><svg id="Ebene_2" xmlns="http://www.w3.org/2000/svg" viewBox="0 0 60.52 28.6"><defs><style>.cls-1{fill:#284361;}</style></defs><g id="Ebene_2-2"><g id="Ebene_1-2"><path class="cls-1" d="M23.96,18.71c.22-.24.72-.79,2.03-.79,2.46,0,3.32,2.06,3.32,4.06,0,2.22-1.06,3.95-3.35,3.95-1.23,0-1.72-.47-1.97-.7v3.27h-2.98v-10.37h2.95v.59h0ZM24.39,20.42c-.44.41-.44,1.1-.44,1.53,0,.35.02.7.13,1.04.28.79.92.79,1.04.79.29,0,.59-.12.78-.33.26-.28.42-.75.42-1.45,0-.6-.06-1.87-1.13-1.89-.29-.02-.6.1-.81.31h0Z"/><path class="cls-1" d="M30.2,18.12h3.03v4.15c0,.46.02,1.23,1.09,1.23s1.09-.84,1.1-1.35v-4.02h3.04v7.61h-2.88v-1.12c-.1.22-.16.35-.38.56-.56.55-1.35.75-2.13.75-1.21-.02-1.84-.47-2.1-.75-.73-.72-.75-1.71-.77-2.42v-4.63h0Z"/><path class="cls-1" d="M39.71,15.35h3.04v10.37h-3.04s0-10.37,0-10.37Z"/><path class="cls-1" d="M43.99,15.35h3.04v10.37h-3.04s0-10.37,0-10.37Z"/><path class="cls-1" d="M48.29,15.35h3.03v2.01h-3.03s0-2.01,0-2.01ZM48.29,18.12h3.03v7.61h-3.03v-7.61Z"/><path class="cls-1" d="M55.01,25.83c0,.34.02.97,1.19.97.41,0,.88-.1,1.13-.34.29-.29.29-.66.29-1.18,0-.25,0-.48.02-.72-.06.09-.12.16-.18.24-.07.07-.53.55-1.8.55-2.31,0-3.42-1.58-3.42-3.67,0-1.54.66-3.76,3.58-3.76.68,0,1.36.15,1.84.62.1.09.19.19.26.31l-.02-.72h2.61v7.17c-.03.88-.09,2.11-1.56,2.81-.75.35-1.79.5-2.78.5-.33,0-1.58-.03-2.39-.31-1.47-.51-1.5-1.65-1.53-2.46h2.75,0ZM55.12,21.76c0,1.1.38,1.58,1.19,1.58,1.22,0,1.25-1.14,1.25-1.72,0-.41,0-1.63-1.18-1.63-1.26,0-1.26,1.47-1.26,1.76h0Z"/><path class="cls-1" d="M6.69,9.37c-.24,0-.42.07-.55.22s-.19.32-.19.52c0,.22.06.39.19.54s.3.22.55.22.41-.07.56-.22c.14-.15.21-.33.21-.54s-.07-.37-.21-.52c-.14-.15-.33-.22-.56-.22Z"/><path class="cls-1" d="M9.55,0C4.28,0,0,4.28,0,9.55s4.28,9.55,9.55,9.55,9.55-4.28,9.55-9.55S14.82,0,9.55,0ZM9.32,12.36h-1.76v-.47h-.02c-.13.18-.32.33-.57.43s-.51.16-.79.16c-.34,0-.63-.07-.88-.2-.26-.14-.47-.31-.63-.54s-.3-.48-.39-.76-.13-.57-.13-.87.04-.57.13-.85.22-.52.39-.75c.17-.22.38-.4.63-.54.26-.14.55-.2.88-.2.22,0,.43.04.65.12s.39.2.52.35h.02v-2.31h1.96v6.42h-.01ZM13.21,9.44c-.08-.01-.15-.02-.21-.02-.26,0-.46.07-.61.22-.15.15-.23.33-.23.55v2.16h-1.96v-4.47h1.88v.51h.02c.09-.18.24-.33.43-.45s.41-.18.67-.18c.15,0,.28.02.37.04l-.15,1.66c-.06-.02-.13-.03-.21-.04h.01ZM15.58,11.83c-.06.14-.14.25-.24.35s-.22.17-.35.23-.27.08-.42.08-.3-.03-.44-.08-.26-.13-.37-.23c-.1-.09-.19-.21-.25-.35-.06-.14-.09-.28-.09-.44s.03-.29.09-.43.14-.25.25-.35c.1-.1.23-.18.37-.24s.28-.09.44-.09.29.03.42.09.25.14.35.24c.1.1.18.22.24.35.06.13.09.28.09.43s-.03.3-.09.44Z"/></g></g></svg>